<?xml version="1.0" encoding="UTF-8" standalone="no"?>
<svg
   xmlns:dc="http://purl.org/dc/elements/1.1/"
   xmlns:cc="http://creativecommons.org/ns#"
   xmlns:rdf="http://www.w3.org/1999/02/22-rdf-syntax-ns#"
   xmlns:svg="http://www.w3.org/2000/svg"
   xmlns="http://www.w3.org/2000/svg"
   xmlns:sodipodi="http://sodipodi.sourceforge.net/DTD/sodipodi-0.dtd"
   xmlns:inkscape="http://www.inkscape.org/namespaces/inkscape"
   version="1.1"
   id="svg2"
   width="64"
   height="64"
   viewBox="0 0 64 64.000001"
   sodipodi:docname="favicon.svg"
   inkscape:version="1.0.1 (3bc2e813f5, 2020-09-07)"
   inkscape:export-filename="/tmp/favicon.png"
   inkscape:export-xdpi="96"
   inkscape:export-ydpi="96">
  <metadata
     id="metadata8">
    <rdf:RDF>
      <cc:Work
         rdf:about="">
        <dc:format>image/svg+xml</dc:format>
        <dc:type
           rdf:resource="http://purl.org/dc/dcmitype/StillImage" />
        <dc:title></dc:title>
      </cc:Work>
    </rdf:RDF>
  </metadata>
  <defs
     id="defs6" />
  <sodipodi:namedview
     pagecolor="#ffffff"
     bordercolor="#666666"
     borderopacity="1"
     objecttolerance="10"
     gridtolerance="10"
     guidetolerance="10"
     inkscape:pageopacity="0"
     inkscape:pageshadow="2"
     inkscape:window-width="3840"
     inkscape:window-height="2096"
     id="namedview4"
     showgrid="false"
     fit-margin-top="0"
     fit-margin-left="0"
     fit-margin-right="0"
     fit-margin-bottom="0"
     inkscape:zoom="29.734375"
     inkscape:cx="32"
     inkscape:cy="32"
     inkscape:window-x="1920"
     inkscape:window-y="27"
     inkscape:window-maximized="1"
     inkscape:current-layer="g10" />
  <g
     inkscape:groupmode="layer"
     inkscape:label="Image"
     id="g10"
     transform="translate(-151.12264,-91.862901)">
    <path
       style="fill:#000000;stroke-width:0.191"
       d="m 166.43627,146.56411 c 0,-0.21262 0.45959,-1.79841 1.02132,-3.52398 l 1.02131,-3.13741 4.42219,-6.40767 c 2.4322,-3.52422 4.42218,-6.45577 4.42218,-6.51455 0,-0.0588 -0.52196,-0.81086 -1.15991,-1.67126 -2.95723,-3.98841 -7.81709,-13.53568 -7.81709,-15.35677 0,-0.39917 0.2339,-1.44399 0.51978,-2.32183 0.49828,-1.53003 0.54186,-1.59372 1.05333,-1.53937 0.48881,0.0519 0.63484,0.28343 1.74175,2.76105 2.14371,4.79829 5.13072,9.76928 8.03425,13.37059 0.69129,0.85742 1.25689,1.71676 1.25689,1.90965 0,0.19288 -0.31462,1.2963 -0.69916,2.45205 -0.67815,2.03823 -0.87937,2.37393 -6.69798,11.17386 -5.45999,8.25756 -6.04914,9.07788 -6.55885,9.13235 -0.4546,0.0486 -0.56001,-0.0129 -0.56001,-0.32671 z m 26.53489,-0.34326 c -1.92848,-5.07228 -5.59011,-11.42447 -9.07029,-15.73512 -0.67628,-0.83766 -1.2296,-1.67409 -1.2296,-1.85873 0,-0.18465 0.32231,-1.28924 0.71625,-2.45465 0.69248,-2.04861 0.91595,-2.42081 6.73275,-11.21347 5.50952,-8.32818 6.06076,-9.09465 6.54175,-9.09597 0.75562,-0.002 0.70194,0.37924 -0.58047,4.1236 l -1.10572,3.22846 -4.33778,6.23815 c -2.38578,3.43099 -4.33778,6.29154 -4.33778,6.35679 0,0.0652 0.46596,0.73906 1.03546,1.49735 2.26255,3.0126 5.07237,8.13447 7.28067,13.27159 l 0.92503,2.15187 -0.64717,2.00238 c -0.61987,1.91788 -0.66996,2.00237 -1.18731,2.00237 -0.41079,0 -0.58699,-0.12324 -0.73579,-0.51462 z m -41.68756,-3.81471 c -0.07,-0.07 -0.12733,-7.12223 -0.12733,-15.67153 v -15.5442 l 1.09825,0.0573 1.09825,0.0573 0.0489,15.61425 0.0489,15.61425 h -1.01978 c -0.56088,0 -1.07708,-0.0573 -1.14712,-0.12733 z m 61.693,0 c -0.07,-0.07 -0.12733,-7.12223 -0.12733,-15.67153 v -15.5442 l 1.09825,0.0573 1.09825,0.0573 0.0489,15.61425 0.0489,15.61425 h -1.01978 c -0.56088,0 -1.07708,-0.0573 -1.14712,-0.12733 z m -56.85433,-15.1639 v -11.47122 l 5.20475,0.059 c 5.1583,0.0585 5.21427,0.0635 6.27177,0.55936 1.24158,0.58225 2.28913,1.56359 2.88639,2.70394 0.59599,1.13795 0.73157,4.60506 0.23816,6.09058 -0.4497,1.35392 -2.08385,3.01327 -3.42757,3.48042 -0.84526,0.29386 -4.26591,0.66808 -6.25525,0.68433 l -0.71625,0.006 v 4.6795 4.6795 h -2.101 -2.101 z m 8.96707,-2.33201 c 1.0643,-0.53399 1.55421,-1.19844 1.6713,-2.26669 0.0722,-0.65915 -0.002,-0.96978 -0.35525,-1.48451 -0.88055,-1.28339 -1.27983,-1.44276 -3.80307,-1.51793 l -2.27805,-0.0679 v 3.00933 3.00933 l 1.95775,-0.1277 c 1.45621,-0.095 2.1754,-0.23689 2.80732,-0.55396 z m 30.18793,2.33201 v -11.47122 l 5.20475,0.059 c 5.1583,0.0585 5.21427,0.0635 6.27177,0.55936 1.24158,0.58225 2.28913,1.56359 2.88639,2.70394 0.59599,1.13795 0.73157,4.60506 0.23816,6.09058 -0.4497,1.35392 -2.08385,3.01327 -3.42757,3.48042 -0.84526,0.29386 -4.26591,0.66808 -6.25525,0.68433 l -0.71625,0.006 v 4.6795 4.6795 h -2.101 -2.101 z m 8.96707,-2.33201 c 1.0643,-0.53399 1.55421,-1.19844 1.6713,-2.26669 0.0722,-0.65915 -0.002,-0.96978 -0.35525,-1.48451 -0.88055,-1.28339 -1.27983,-1.44276 -3.80308,-1.51793 l -2.27804,-0.0679 v 3.00933 3.00933 l 1.95775,-0.1277 c 1.45621,-0.095 2.17539,-0.23689 2.80732,-0.55396 z"
       id="path839" />
  </g>
</svg>
